# xmcd
#
# Track frame offsets: 
#        150
#        32025
#        51150
#
# Disc length: 978 seconds
#
# Revision: 1
# Processed by: cddbd v1.5.2PL0 Copyright (c) Steve Scherf et al.
# Submitted via: ExactAudioCopy v0.99pb4
#
DISCID=1f03d003
DTITLE=Milli Vanilli - Blame It On The Rain
DYEAR=1989
DGENRE=Pop
TTITLE0=Blame It On The Rain (Club Mix)
TTITLE1=Money (Remix)
TTITLE2=Baby Don't Forget My Number (European Mix)
EXTD=
EXTT0=
EXTT1=
EXTT2=
PLAYORDER=
